<?xml version="1.0" encoding="utf-8"?>
<svg version="1.1" id="レイヤー_1" xmlns="http://www.w3.org/2000/svg" xmlns:xlink="http://www.w3.org/1999/xlink" x="0px"
	 y="0px" width="464.79px" height="154.74px" viewBox="0 0 464.79 154.74" style="enable-background:new 0 0 464.79 154.74;"
	 xml:space="preserve">
<g>
	<g>
		<path style="fill:#2E008B;" d="M175.35,37.15c-4.53,0-8.26-1.86-11.82-4.8l-5.15,6.16c4.75,4.24,10.8,6.34,16.8,6.34
			c8.54,0,14.54-4.41,14.54-12.28v-0.11c0-6.91-4.53-9.78-12.56-11.89c-6.84-1.75-8.54-2.6-8.54-5.2v-0.11
			c0-1.93,1.75-3.46,5.09-3.46s6.79,1.47,10.3,3.9l4.53-6.56c-4.02-3.22-8.94-5.03-14.71-5.03c-8.09,0-13.86,4.75-13.86,11.93v0.12
			c0,7.86,5.15,10.07,13.12,12.1c6.62,1.7,7.98,2.83,7.98,5.03v0.12C181.06,35.74,178.9,37.15,175.35,37.15z"/>
		<path style="fill:#2E008B;" d="M220.2,27.37c0,6.28-3.23,9.51-8.54,9.51s-8.53-3.34-8.53-9.79V4.69h-8.71v22.62
			c0,11.66,6.5,17.6,17.14,17.6c10.63,0,17.36-5.88,17.36-17.88V4.69h-8.71V27.37z"/>
		<polygon style="fill:#2E008B;" points="244.07,18.6 255.1,35.35 255.33,35.35 266.47,18.43 266.47,44.28 275.13,44.28 
			275.13,4.69 265.73,4.69 255.33,21.43 244.92,4.69 235.53,4.69 235.53,44.28 244.07,44.28 		"/>
		<rect x="283.33" y="4.69" style="fill:#2E008B;" width="8.7" height="39.59"/>
		<polygon style="fill:#2E008B;" points="309.46,44.28 318.17,44.28 318.17,12.72 330.22,12.72 330.22,4.69 297.41,4.69 
			297.41,12.72 309.46,12.72 		"/>
		<path style="fill:#2E008B;" d="M373.27,24.49v-0.12c0-11.26-8.77-20.36-20.99-20.36c-12.22,0-21.1,9.22-21.1,20.48v0.11
			c0,11.26,8.77,20.36,20.99,20.36C364.39,44.96,373.27,35.74,373.27,24.49z M340.29,24.49v-0.12c0-6.79,4.87-12.34,11.88-12.34
			c7.01,0,11.99,5.66,11.99,12.45v0.11c0,6.79-4.87,12.33-11.88,12.33C345.27,36.93,340.29,31.27,340.29,24.49z"/>
		<polygon style="fill:#2E008B;" points="386.73,18.6 397.76,35.35 397.98,35.35 409.13,18.43 409.13,44.28 417.79,44.28 
			417.79,4.69 408.39,4.69 397.98,21.43 387.58,4.69 378.19,4.69 378.19,44.28 386.73,44.28 		"/>
		<path style="fill:#2E008B;" d="M443.8,4.01c-12.22,0-21.1,9.22-21.1,20.48v0.11c0,11.26,8.77,20.36,20.99,20.36
			c12.22,0,21.1-9.22,21.1-20.47v-0.12C464.79,13.12,456.02,4.01,443.8,4.01z M455.68,24.6c0,6.79-4.87,12.33-11.88,12.33
			c-7.01,0-11.99-5.66-11.99-12.44v-0.12c0-6.79,4.86-12.34,11.88-12.34c7.01,0,11.99,5.66,11.99,12.45V24.6z"/>
		<polygon style="fill:#2E008B;" points="169.74,82.48 188.41,82.48 188.41,74.72 169.74,74.72 169.74,66.69 190.95,66.69 
			190.95,58.94 161.09,58.94 161.09,98.54 191.24,98.54 191.24,90.79 169.74,90.79 		"/>
		<polygon style="fill:#2E008B;" points="206,58.94 197.29,58.94 197.29,98.54 225.74,98.54 225.74,90.63 206,90.63 		"/>
		<polygon style="fill:#2E008B;" points="239.26,82.48 257.93,82.48 257.93,74.72 239.26,74.72 239.26,66.69 260.47,66.69 
			260.47,58.94 230.6,58.94 230.6,98.54 260.75,98.54 260.75,90.79 239.26,90.79 		"/>
		<path style="fill:#2E008B;" d="M285.36,91.19c-6.79,0-11.49-5.66-11.49-12.44v-0.11c0-6.79,4.81-12.34,11.49-12.34
			c3.96,0,7.07,1.7,10.13,4.47l5.54-6.39c-3.67-3.62-8.14-6.11-15.61-6.11c-12.16,0-20.65,9.22-20.65,20.48v0.11
			c0,11.37,8.65,20.36,20.31,20.36c7.64,0,12.16-2.72,16.23-7.07l-5.54-5.6C292.66,89.38,289.88,91.19,285.36,91.19z"/>
		<polygon style="fill:#2E008B;" points="304.03,66.97 316.07,66.97 316.07,98.54 324.79,98.54 324.79,66.97 336.84,66.97 
			336.84,58.94 304.03,58.94 		"/>
		<path style="fill:#2E008B;" d="M375.14,72.12v-0.11c0-3.73-1.19-6.85-3.4-9.05c-2.6-2.6-6.5-4.02-11.53-4.02h-18.1v39.6h8.71
			V85.87h6.85l8.49,12.67h10.18l-9.67-14.14C371.68,82.53,375.14,78.52,375.14,72.12z M366.31,72.58c0,3.34-2.43,5.6-6.67,5.6h-8.83
			V66.81h8.65c4.24,0,6.85,1.92,6.85,5.65V72.58z"/>
		<rect x="381.69" y="58.94" style="fill:#2E008B;" width="8.71" height="39.6"/>
		<path style="fill:#2E008B;" d="M416.59,91.19c-6.79,0-11.48-5.66-11.48-12.44v-0.11c0-6.79,4.81-12.34,11.48-12.34
			c3.96,0,7.07,1.7,10.12,4.47l5.55-6.39c-3.68-3.62-8.15-6.11-15.61-6.11c-12.16,0-20.65,9.22-20.65,20.48v0.11
			c0,11.37,8.65,20.36,20.31,20.36c7.63,0,12.16-2.72,16.24-7.07l-5.55-5.6C423.89,89.38,421.12,91.19,416.59,91.19z"/>
	</g>
	<path style="fill:#2E008B;" d="M137.65,46.92l-25.03-18.77l-6.26,4.7l-12.51-9.39l6.26-4.69L75.08,0l-6.25,4.69L62.57,0
		L37.54,18.77l6.25,4.69l-12.52,9.39l-6.25-4.7L0,46.92l6.26,4.7L0,56.31l25.03,18.77l6.25-4.69l12.52,9.38l-6.25,4.69l25.03,18.77
		l6.26-4.69l6.25,4.69l25.03-18.77l-6.26-4.69l12.51-9.38l6.26,4.69l25.03-18.77l-6.26-4.69L137.65,46.92z M56.31,51.62l12.52-9.39
		l12.52,9.39L68.83,61L56.31,51.62z"/>
</g>
<g>
	<g>
		<path style="fill:#6D6C69;" d="M4.11,127.57c2.37-2.42,5.38-3.63,9.04-3.63c4.9,0,8.48,1.62,10.74,4.87
			c1.25,1.82,1.92,3.65,2.01,5.49h-6.15c-0.39-1.41-0.89-2.48-1.51-3.19c-1.1-1.28-2.72-1.92-4.87-1.92c-2.19,0-3.92,0.9-5.18,2.7
			c-1.26,1.8-1.9,4.36-1.9,7.66c0,3.3,0.67,5.77,2,7.42c1.33,1.64,3.03,2.46,5.09,2.46c2.11,0,3.72-0.71,4.82-2.12
			c0.61-0.76,1.12-1.9,1.52-3.41h6.11c-0.53,3.21-1.87,5.82-4.04,7.82c-2.17,2.01-4.94,3.01-8.32,3.01c-4.19,0-7.48-1.36-9.87-4.07
			c-2.4-2.73-3.59-6.47-3.59-11.22C0.02,134.31,1.38,130.35,4.11,127.57z"/>
		<path style="fill:#6D6C69;" d="M48.54,151.25c-1.84,2.27-4.62,3.4-8.36,3.4c-3.74,0-6.53-1.13-8.36-3.4
			c-1.84-2.27-2.75-5-2.75-8.19c0-3.14,0.92-5.86,2.75-8.16c1.84-2.3,4.62-3.45,8.36-3.45c3.74,0,6.53,1.15,8.36,3.45
			s2.75,5.02,2.75,8.16C51.3,146.26,50.38,148.99,48.54,151.25z M43.99,148.11c0.89-1.18,1.34-2.86,1.34-5.04
			c0-2.18-0.45-3.86-1.34-5.03c-0.89-1.18-2.17-1.76-3.83-1.76s-2.95,0.59-3.84,1.76c-0.9,1.18-1.35,2.85-1.35,5.03
			c0,2.18,0.45,3.86,1.35,5.04c0.9,1.18,2.18,1.77,3.84,1.77S43.1,149.29,43.99,148.11z"/>
		<path style="fill:#6D6C69;" d="M72.36,133.41c1.42,1.18,2.14,3.13,2.14,5.86v14.65h-5.83v-13.23c0-1.14-0.15-2.02-0.46-2.63
			c-0.56-1.12-1.61-1.68-3.17-1.68c-1.92,0-3.23,0.82-3.94,2.46c-0.37,0.87-0.56,1.97-0.56,3.31v11.78h-5.69V132.2h5.51v3.17
			c0.73-1.12,1.42-1.92,2.07-2.42c1.16-0.88,2.64-1.32,4.43-1.32C69.1,131.64,70.94,132.23,72.36,133.41z"/>
		<path style="fill:#6D6C69;" d="M95.97,133.41c1.42,1.18,2.14,3.13,2.14,5.86v14.65h-5.83v-13.23c0-1.14-0.15-2.02-0.46-2.63
			c-0.56-1.12-1.61-1.68-3.17-1.68c-1.92,0-3.23,0.82-3.94,2.46c-0.37,0.87-0.56,1.97-0.56,3.31v11.78h-5.69V132.2h5.51v3.17
			c0.73-1.12,1.42-1.92,2.07-2.42c1.16-0.88,2.64-1.32,4.43-1.32C92.72,131.64,94.55,132.23,95.97,133.41z"/>
		<path style="fill:#6D6C69;" d="M117.31,132.6c1.52,0.68,2.77,1.75,3.76,3.22c0.89,1.29,1.47,2.79,1.73,4.5
			c0.15,1,0.22,2.44,0.19,4.32h-15.85c0.09,2.18,0.85,3.71,2.28,4.59c0.87,0.55,1.91,0.82,3.14,0.82c1.3,0,2.35-0.33,3.16-1
			c0.44-0.36,0.83-0.86,1.17-1.5h5.81c-0.15,1.29-0.86,2.6-2.11,3.93c-1.95,2.12-4.68,3.17-8.19,3.17c-2.9,0-5.45-0.89-7.66-2.68
			c-2.21-1.78-3.32-4.69-3.32-8.71c0-3.77,1-6.66,3-8.67c2-2.01,4.59-3.02,7.78-3.02C114.09,131.58,115.8,131.92,117.31,132.6z
			 M108.8,137.51c-0.8,0.83-1.31,1.95-1.52,3.37h9.8c-0.1-1.51-0.61-2.66-1.52-3.44c-0.91-0.78-2.03-1.17-3.37-1.17
			C110.74,136.27,109.61,136.68,108.8,137.51z"/>
		<path style="fill:#6D6C69;" d="M140.43,139.96c-0.11-0.81-0.38-1.54-0.82-2.2c-0.64-0.88-1.63-1.32-2.98-1.32
			c-1.92,0-3.24,0.95-3.94,2.85c-0.37,1.01-0.56,2.35-0.56,4.02c0,1.59,0.19,2.87,0.56,3.84c0.68,1.81,1.96,2.71,3.84,2.71
			c1.33,0,2.28-0.36,2.84-1.08c0.56-0.72,0.9-1.65,1.02-2.79h5.81c-0.13,1.73-0.76,3.37-1.88,4.91c-1.78,2.49-4.43,3.73-7.93,3.73
			c-3.5,0-6.08-1.04-7.73-3.11c-1.65-2.08-2.48-4.77-2.48-8.08c0-3.73,0.91-6.64,2.74-8.71c1.82-2.08,4.34-3.11,7.55-3.11
			c2.73,0,4.96,0.61,6.7,1.84c1.74,1.22,2.77,3.39,3.09,6.49H140.43z"/>
		<path style="fill:#6D6C69;" d="M148.3,136.41v-4.05h3.03v-6.07h5.63v6.07h3.53v4.05h-3.53v11.5c0,0.89,0.11,1.45,0.34,1.67
			c0.23,0.22,0.92,0.33,2.08,0.33c0.17,0,0.36,0,0.55-0.01c0.19-0.01,0.38-0.02,0.57-0.03v4.25l-2.7,0.1
			c-2.69,0.09-4.52-0.37-5.51-1.4c-0.64-0.65-0.96-1.66-0.96-3.01v-13.39H148.3z"/>
		<path style="fill:#6D6C69;" d="M188.52,132.16h5.77l3.31,15.67l3.39-15.67h5.93l-6.31,21.76h-5.85l-3.41-15.85l-3.45,15.85h-5.91
			l-6.11-21.76h6.11l3.39,15.61L188.52,132.16z"/>
		<path style="fill:#6D6C69;" d="M215.95,129.56h-5.77v-5.25h5.77V129.56z M210.18,132.16h5.77v21.76h-5.77V132.16z"/>
		<path style="fill:#6D6C69;" d="M219.26,136.41v-4.05h3.03v-6.07h5.63v6.07h3.53v4.05h-3.53v11.5c0,0.89,0.11,1.45,0.34,1.67
			c0.23,0.22,0.92,0.33,2.08,0.33c0.17,0,0.36,0,0.55-0.01c0.19-0.01,0.38-0.02,0.57-0.03v4.25l-2.69,0.1
			c-2.69,0.09-4.52-0.37-5.51-1.4c-0.64-0.65-0.96-1.66-0.96-3.01v-13.39H219.26z"/>
		<path style="fill:#6D6C69;" d="M250.79,132.28c1.09,0.47,1.99,1.18,2.69,2.14c0.6,0.81,0.96,1.65,1.09,2.51
			c0.13,0.86,0.2,2.26,0.2,4.21v12.79h-5.81v-13.25c0-1.17-0.2-2.12-0.59-2.84c-0.52-1.01-1.49-1.52-2.93-1.52
			c-1.49,0-2.63,0.5-3.4,1.51c-0.77,1.01-1.16,2.44-1.16,4.31v11.79h-5.69v-29.32h5.69v10.38c0.82-1.26,1.77-2.15,2.85-2.65
			c1.08-0.5,2.22-0.75,3.41-0.75C248.48,131.58,249.7,131.81,250.79,132.28z"/>
		<path style="fill:#6D6C69;" d="M276.44,153.92h-6.11v-29.42h6.11V153.92z"/>
		<path style="fill:#6D6C69;" d="M298.64,133.41c1.42,1.18,2.14,3.13,2.14,5.86v14.65h-5.83v-13.23c0-1.14-0.15-2.02-0.46-2.63
			c-0.56-1.12-1.61-1.68-3.17-1.68c-1.92,0-3.23,0.82-3.94,2.46c-0.37,0.87-0.56,1.97-0.56,3.31v11.78h-5.69V132.2h5.51v3.17
			c0.73-1.12,1.42-1.92,2.07-2.42c1.16-0.88,2.64-1.32,4.43-1.32C295.38,131.64,297.21,132.23,298.64,133.41z"/>
		<path style="fill:#6D6C69;" d="M322.05,133.41c1.42,1.18,2.14,3.13,2.14,5.86v14.65h-5.83v-13.23c0-1.14-0.15-2.02-0.46-2.63
			c-0.56-1.12-1.61-1.68-3.17-1.68c-1.92,0-3.23,0.82-3.94,2.46c-0.37,0.87-0.56,1.97-0.56,3.31v11.78h-5.69V132.2h5.51v3.17
			c0.73-1.12,1.42-1.92,2.07-2.42c1.16-0.88,2.64-1.32,4.43-1.32C318.79,131.64,320.63,132.23,322.05,133.41z"/>
		<path style="fill:#6D6C69;" d="M346.81,151.25c-1.84,2.27-4.62,3.4-8.36,3.4c-3.74,0-6.53-1.13-8.36-3.4
			c-1.84-2.27-2.75-5-2.75-8.19c0-3.14,0.92-5.86,2.75-8.16c1.84-2.3,4.62-3.45,8.36-3.45c3.74,0,6.53,1.15,8.36,3.45
			c1.84,2.3,2.75,5.02,2.75,8.16C349.57,146.26,348.65,148.99,346.81,151.25z M342.26,148.11c0.89-1.18,1.34-2.86,1.34-5.04
			c0-2.18-0.45-3.86-1.34-5.03c-0.89-1.18-2.17-1.76-3.83-1.76s-2.95,0.59-3.84,1.76c-0.9,1.18-1.35,2.85-1.35,5.03
			c0,2.18,0.45,3.86,1.35,5.04c0.9,1.18,2.18,1.77,3.84,1.77S341.37,149.29,342.26,148.11z"/>
		<path style="fill:#6D6C69;" d="M365.54,132.16h6.11l-7.86,21.76h-6l-7.8-21.76h6.39l4.53,16.05L365.54,132.16z"/>
		<path style="fill:#6D6C69;" d="M382.53,140.68c1.06-0.13,1.82-0.3,2.27-0.5c0.82-0.35,1.23-0.89,1.23-1.62
			c0-0.89-0.31-1.51-0.94-1.85c-0.63-0.34-1.55-0.51-2.76-0.51c-1.36,0-2.33,0.33-2.89,1c-0.4,0.49-0.67,1.16-0.81,2h-5.49
			c0.12-1.9,0.66-3.47,1.6-4.69c1.51-1.92,4.1-2.87,7.78-2.87c2.39,0,4.52,0.47,6.37,1.42c1.86,0.95,2.79,2.73,2.79,5.35v9.98
			c0,0.69,0.01,1.53,0.04,2.52c0.04,0.75,0.15,1.25,0.34,1.52c0.19,0.27,0.47,0.49,0.84,0.66v0.84h-6.19
			c-0.17-0.44-0.29-0.85-0.36-1.24c-0.07-0.39-0.12-0.83-0.16-1.32c-0.79,0.85-1.7,1.58-2.73,2.18c-1.23,0.71-2.62,1.06-4.18,1.06
			c-1.98,0-3.62-0.56-4.91-1.69c-1.29-1.12-1.94-2.72-1.94-4.78c0-2.67,1.04-4.61,3.12-5.81c1.14-0.65,2.82-1.12,5.03-1.4
			L382.53,140.68z M386.01,143.34c-0.37,0.23-0.73,0.41-1.1,0.55c-0.37,0.14-0.88,0.27-1.53,0.39l-1.29,0.24
			c-1.21,0.21-2.09,0.47-2.61,0.78c-0.9,0.52-1.34,1.32-1.34,2.42c0,0.97,0.27,1.67,0.82,2.11c0.55,0.43,1.21,0.65,2,0.65
			c1.24,0,2.39-0.36,3.44-1.08c1.05-0.72,1.59-2.03,1.63-3.93V143.34z"/>
		<path style="fill:#6D6C69;" d="M394.66,136.41v-4.05h3.03v-6.07h5.63v6.07h3.53v4.05h-3.53v11.5c0,0.89,0.11,1.45,0.34,1.67
			c0.23,0.22,0.92,0.33,2.08,0.33c0.17,0,0.36,0,0.55-0.01c0.19-0.01,0.38-0.02,0.57-0.03v4.25l-2.69,0.1
			c-2.69,0.09-4.52-0.37-5.51-1.4c-0.64-0.65-0.96-1.66-0.96-3.01v-13.39H394.66z"/>
		<path style="fill:#6D6C69;" d="M416.4,129.56h-5.77v-5.25h5.77V129.56z M410.63,132.16h5.77v21.76h-5.77V132.16z"/>
		<path style="fill:#6D6C69;" d="M438.89,151.25c-1.84,2.27-4.62,3.4-8.36,3.4s-6.53-1.13-8.36-3.4c-1.84-2.27-2.75-5-2.75-8.19
			c0-3.14,0.92-5.86,2.75-8.16c1.84-2.3,4.62-3.45,8.36-3.45s6.53,1.15,8.36,3.45c1.84,2.3,2.75,5.02,2.75,8.16
			C441.65,146.26,440.73,148.99,438.89,151.25z M434.34,148.11c0.89-1.18,1.34-2.86,1.34-5.04c0-2.18-0.45-3.86-1.34-5.03
			c-0.89-1.18-2.17-1.76-3.83-1.76s-2.94,0.59-3.84,1.76c-0.9,1.18-1.35,2.85-1.35,5.03c0,2.18,0.45,3.86,1.35,5.04
			c0.9,1.18,2.18,1.77,3.84,1.77S433.45,149.29,434.34,148.11z"/>
		<path style="fill:#6D6C69;" d="M462.51,133.41c1.42,1.18,2.14,3.13,2.14,5.86v14.65h-5.83v-13.23c0-1.14-0.15-2.02-0.46-2.63
			c-0.56-1.12-1.61-1.68-3.17-1.68c-1.92,0-3.23,0.82-3.94,2.46c-0.37,0.87-0.56,1.97-0.56,3.31v11.78H445V132.2h5.51v3.17
			c0.73-1.12,1.42-1.92,2.07-2.42c1.16-0.88,2.64-1.32,4.43-1.32C459.25,131.64,461.08,132.23,462.51,133.41z"/>
	</g>
</g>
</svg>
